<svg width="68" height="69" viewBox="0 0 68 69" fill="none" xmlns="http://www.w3.org/2000/svg">
<path d="M50.8833 32.9342C51.4052 33.717 51.9271 34.4999 52.188 35.8046H43.8379C43.8379 35.5436 43.8379 35.0217 44.0989 34.4999C44.3598 33.978 44.3598 33.717 44.8817 33.1952C45.1427 32.6733 45.6645 32.4123 46.1864 32.1514C46.7083 31.8905 47.4911 31.6295 48.2739 31.6295C49.3177 31.8905 50.3615 32.1514 50.8833 32.9342ZM26.8768 31.1076C27.3987 30.5858 27.9206 29.8029 27.9206 28.7592C27.9206 28.2373 27.9206 27.7154 27.6597 27.1935C27.3987 26.9326 27.1378 26.4107 26.8768 26.4107C26.6159 26.1498 26.094 26.1498 25.5721 25.8888H18.7877V31.8905H24.5284C25.3112 31.8905 26.094 31.6295 26.8768 31.1076ZM24.7893 35.5436H18.7877V42.589H24.7893C25.3112 42.589 25.8331 42.589 26.355 42.3281C26.8768 42.3281 27.3987 42.0671 27.6597 41.8062C27.9206 41.5452 28.4425 41.2843 28.7034 40.7624C28.9644 40.2405 28.9644 39.7187 28.9644 39.1968C28.9644 37.8921 28.7034 36.8483 27.9206 36.3264C27.1378 35.8046 26.094 35.5436 24.7893 35.5436ZM67.8444 13.3637V55.636C67.8444 62.6814 62.1038 68.4221 55.0584 68.4221H12.7861C5.74068 68.4221 0 62.6814 0 55.636V13.3637C0 6.31832 5.74068 0.577637 12.7861 0.577637H55.0584C62.1038 0.577637 67.8444 6.31832 67.8444 13.3637ZM42.7942 25.6279H53.2318V23.0185H42.7942V25.6279ZM34.4441 39.7187C34.4441 38.153 34.1832 36.8483 33.4003 35.5436C32.6175 34.4999 31.5738 33.717 30.0081 33.1952C31.0519 32.6733 32.0956 31.8905 32.6175 31.1076C33.1394 30.3248 33.4003 29.2811 33.4003 27.9764C33.4003 26.6717 33.1394 25.8888 32.8785 24.8451C32.3566 24.0623 31.8347 23.2794 31.3128 23.0185C30.53 22.4966 29.7472 22.2357 28.7034 21.9747C27.3987 21.4528 26.355 21.4529 25.0503 21.4529H13.047V47.025H25.5721C26.6159 47.025 27.9206 46.764 28.9644 46.5031C30.0081 46.2422 31.0519 45.7203 31.8347 45.1984C32.6175 44.6765 33.4003 43.8937 33.9222 42.8499C34.1832 42.0671 34.4441 41.0234 34.4441 39.7187ZM43.8379 38.9358H57.1459C57.1459 37.3702 57.1459 36.0655 56.885 34.7608C56.624 33.4561 56.1021 32.1514 55.3193 31.3686C54.5365 30.3248 53.4927 29.542 52.449 29.0201C51.1443 28.4982 49.8396 27.9764 48.2739 27.9764C46.9692 27.9764 45.6645 28.2373 44.3598 28.7592C43.3161 29.2811 42.2723 30.0639 41.2285 30.8467C40.4457 31.6295 39.6629 32.6733 39.402 33.978C38.8801 35.2827 38.6191 36.5874 38.6191 37.8921C38.6191 39.1968 38.8801 40.7624 39.402 41.8062C39.9238 43.1109 40.4457 44.1546 41.2285 44.9375C42.0114 45.7203 43.0551 46.5031 44.0989 47.025C45.4036 47.5469 46.7083 47.8078 48.013 47.8078C50.1005 47.8078 51.9271 47.2859 53.4927 46.2422C55.0584 45.1984 56.1021 43.6328 56.885 41.5452H52.449C52.188 42.0671 51.9271 42.589 51.1443 43.1109C50.3615 43.6328 49.5786 43.8937 48.5349 43.8937C47.2302 43.8937 45.9255 43.6328 45.1426 42.8499C44.3598 41.8062 43.8379 40.5015 43.8379 38.9358Z" fill="#FBAD30"/>
</svg>
