<svg width="81" height="80" viewBox="0 0 81 80" fill="none" xmlns="http://www.w3.org/2000/svg">
<rect x="0.5" width="80" height="80" rx="40" fill="#FBAD30"/>
<path d="M60.2385 57.9276L54.3365 52.062V29.4963L51.5491 24.3699C51.3435 23.9791 51.035 23.6518 50.6569 23.4236C50.2789 23.1953 49.8457 23.0746 49.404 23.0746C48.9624 23.0746 48.5292 23.1953 48.1511 23.4236C47.7731 23.6518 47.4646 23.9791 47.259 24.3699L44.6412 29.5084V42.4152L22.4755 20.3585C22.3059 20.1876 22.0894 20.071 21.8534 20.0237C21.6173 19.9763 21.3726 20.0003 21.1503 20.0926C20.9279 20.185 20.7382 20.3414 20.6051 20.542C20.472 20.7426 20.4017 20.9782 20.4031 21.219V31.0112H23.0329V32.9502H20.4031V40.7064H23.0329V42.6455H20.4031V50.7047H23.0329V52.6437H20.4031V58.7881C20.4031 59.1095 20.5308 59.4177 20.7581 59.645C20.9853 59.8723 21.2936 60 21.615 60H59.378C59.6187 60.0014 59.8544 59.9311 60.055 59.798C60.2556 59.6649 60.412 59.4751 60.5043 59.2528C60.5966 59.0305 60.6207 58.7857 60.5733 58.5497C60.526 58.3137 60.4094 58.0971 60.2385 57.9276ZM30.0984 50.4017V39.4218L41.0903 50.4017H30.0984ZM51.9127 52.9588H47.0651V50.0139H51.9127V52.9588ZM51.9127 48.1112H47.0651V30.1022L49.4162 25.5333L51.9127 30.1144V48.1112Z" fill="white"/>
</svg>
