<svg width="80" height="80" viewBox="0 0 80 80" fill="none" xmlns="http://www.w3.org/2000/svg">
<rect width="80" height="80" rx="40" fill="#FBAD30"/>
<path d="M46.8397 20.1595C48.1397 20.6595 48.8072 22.172 48.3347 23.5421L36.3644 58.263C35.8894 59.633 34.4569 60.338 33.1593 59.8405C31.8593 59.3405 31.1918 57.828 31.6643 56.4579L43.6346 21.737C44.1096 20.367 45.5421 19.662 46.8397 20.1595ZM21.034 40.64L29.8742 49.9753C30.8493 51.0053 30.8493 52.6753 29.8742 53.7053C29.6488 53.9491 29.3754 54.1436 29.0713 54.2766C28.7671 54.4096 28.4387 54.4782 28.1067 54.4782C27.7747 54.4782 27.4463 54.4096 27.1421 54.2766C26.8379 54.1436 26.5646 53.9491 26.3391 53.7053L15.7314 42.5076C15.2619 41.9995 15.0012 41.3331 15.0012 40.6413C15.0012 39.9495 15.2619 39.2831 15.7314 38.775L26.3391 27.5747C26.5646 27.3309 26.8379 27.1365 27.1421 27.0035C27.4463 26.8705 27.7747 26.8018 28.1067 26.8018C28.4387 26.8018 28.7671 26.8705 29.0713 27.0035C29.3754 27.1365 29.6488 27.3309 29.8742 27.5747C30.3444 28.0829 30.6056 28.7498 30.6056 29.4422C30.6056 30.1346 30.3444 30.8015 29.8742 31.3098L21.034 40.64ZM58.965 40.64L50.1247 31.3098C49.6553 30.8017 49.3945 30.1353 49.3945 29.4435C49.3945 28.7517 49.6553 28.0853 50.1247 27.5772C50.3502 27.3334 50.6235 27.139 50.9277 27.006C51.2319 26.873 51.5603 26.8043 51.8923 26.8043C52.2243 26.8043 52.5527 26.873 52.8569 27.006C53.161 27.139 53.4344 27.3334 53.6598 27.5772L64.2676 38.775C65.2426 39.805 65.2426 41.475 64.2676 42.5076L53.6598 53.7028C53.4344 53.9466 53.161 54.1411 52.8569 54.2741C52.5527 54.4071 52.2243 54.4757 51.8923 54.4757C51.5603 54.4757 51.2319 54.4071 50.9277 54.2741C50.6235 54.1411 50.3502 53.9466 50.1247 53.7028C49.656 53.1949 49.3957 52.529 49.3957 51.8378C49.3957 51.1466 49.656 50.4807 50.1247 49.9728L58.965 40.64Z" fill="white"/>
</svg>
