<svg width="81" height="80" viewBox="0 0 81 80" fill="none" xmlns="http://www.w3.org/2000/svg">
<rect x="0.5" width="80" height="80" rx="40" fill="#FBAD30"/>
<path d="M40.4167 60C37.6922 60 35.1204 59.4741 32.7011 58.4222C30.2833 57.3689 28.1722 55.9393 26.3678 54.1333C24.5618 52.3289 23.1322 50.2104 22.0789 47.7778C21.027 45.3452 20.5011 42.7526 20.5011 40C20.5011 37.2104 21.0389 34.5993 22.1144 32.1667C23.19 29.7341 24.6559 27.617 26.5122 25.8156C28.3685 24.0156 30.5463 22.5963 33.0455 21.5578C35.5418 20.5193 38.2026 20 41.0278 20C43.6204 20 46.0892 20.4378 48.4344 21.3133C50.7796 22.1904 52.8433 23.4052 54.6255 24.9578C56.4078 26.5133 57.8322 28.3652 58.8989 30.5133C59.9655 32.6644 60.4989 35.0089 60.4989 37.5467C60.4989 40.9793 59.5085 43.7274 57.5278 45.7911C55.55 47.8563 52.8374 48.8889 49.39 48.8889H45.45C44.5181 48.8889 43.7381 49.2096 43.11 49.8511C42.4818 50.4911 42.1678 51.2644 42.1678 52.1711C42.1678 53.1 42.4455 53.8882 43.0011 54.5356C43.5567 55.1844 43.8344 55.9319 43.8344 56.7778C43.8344 57.8593 43.5315 58.6667 42.9255 59.2C42.3211 59.7333 41.4863 60 40.4167 60ZM28.2789 41.1111C28.9011 41.1111 29.427 40.8963 29.8567 40.4667C30.2863 40.037 30.5011 39.5111 30.5011 38.8889C30.5011 38.2667 30.2863 37.7407 29.8567 37.3111C29.427 36.8815 28.9011 36.6667 28.2789 36.6667C27.6567 36.6667 27.1307 36.8815 26.7011 37.3111C26.2715 37.7407 26.0567 38.2667 26.0567 38.8889C26.0567 39.5111 26.2715 40.037 26.7011 40.4667C27.1307 40.8963 27.6567 41.1111 28.2789 41.1111ZM34.9455 32.2222C35.5678 32.2222 36.0937 32.0074 36.5233 31.5778C36.953 31.1481 37.1678 30.6222 37.1678 30C37.1678 29.3778 36.953 28.8519 36.5233 28.4222C36.0937 27.9926 35.5678 27.7778 34.9455 27.7778C34.3233 27.7778 33.7974 27.9926 33.3678 28.4222C32.9381 28.8519 32.7233 29.3778 32.7233 30C32.7233 30.6222 32.9381 31.1481 33.3678 31.5778C33.7974 32.0074 34.3233 32.2222 34.9455 32.2222ZM46.0567 32.2222C46.6789 32.2222 47.2048 32.0074 47.6344 31.5778C48.0641 31.1481 48.2789 30.6222 48.2789 30C48.2789 29.3778 48.0641 28.8519 47.6344 28.4222C47.2048 27.9926 46.6789 27.7778 46.0567 27.7778C45.4344 27.7778 44.9085 27.9926 44.4789 28.4222C44.0492 28.8519 43.8344 29.3778 43.8344 30C43.8344 30.6222 44.0492 31.1481 44.4789 31.5778C44.9085 32.0074 45.4344 32.2222 46.0567 32.2222ZM52.7233 41.1111C53.3455 41.1111 53.8715 40.8963 54.3011 40.4667C54.7307 40.037 54.9455 39.5111 54.9455 38.8889C54.9455 38.2667 54.7307 37.7407 54.3011 37.3111C53.8715 36.8815 53.3455 36.6667 52.7233 36.6667C52.1011 36.6667 51.5752 36.8815 51.1455 37.3111C50.7159 37.7407 50.5011 38.2667 50.5011 38.8889C50.5011 39.5111 50.7159 40.037 51.1455 40.4667C51.5752 40.8963 52.1011 41.1111 52.7233 41.1111Z" fill="white"/>
</svg>
