<svg width="71" height="71" viewBox="0 0 71 71" fill="none" xmlns="http://www.w3.org/2000/svg">
<path fill-rule="evenodd" clip-rule="evenodd" d="M10.1429 0C7.4528 0 4.87293 1.06862 2.97077 2.97077C1.06862 4.87293 0 7.4528 0 10.1429V60.8571C0 63.5472 1.06862 66.1271 2.97077 68.0292C4.87293 69.9314 7.4528 71 10.1429 71H60.8571C63.5472 71 66.1271 69.9314 68.0292 68.0292C69.9314 66.1271 71 63.5472 71 60.8571V10.1429C71 7.4528 69.9314 4.87293 68.0292 2.97077C66.1271 1.06862 63.5472 0 60.8571 0H10.1429ZM15.7316 21.7919C17.3389 21.7919 18.8804 21.1534 20.0169 20.0169C21.1534 18.8804 21.7919 17.3389 21.7919 15.7316C21.7919 14.1243 21.1534 12.5828 20.0169 11.4463C18.8804 10.3097 17.3389 9.67122 15.7316 9.67122C14.1243 9.67122 12.5828 10.3097 11.4463 11.4463C10.3097 12.5828 9.67122 14.1243 9.67122 15.7316C9.67122 17.3389 10.3097 18.8804 11.4463 20.0169C12.5828 21.1534 14.1243 21.7919 15.7316 21.7919ZM20.803 59.9088V26.5439H10.6601V59.9088H20.803ZM27.5379 26.5439H37.6807V31.0118C39.1768 28.6688 42.4631 25.5144 48.5741 25.5144C55.8669 25.5144 59.8276 30.3474 59.8276 39.5419C59.8276 39.9831 59.8682 41.9965 59.8682 41.9965V59.9037H49.7254V42.0016C49.7254 39.5419 49.2081 34.7089 43.7411 34.7089C38.269 34.7089 37.8075 40.7844 37.6807 44.7604V59.9037H27.5379V26.5439Z" fill="#FBAD30"/>
</svg>
