<svg width="81" height="80" viewBox="0 0 81 80" fill="none" xmlns="http://www.w3.org/2000/svg">
<rect x="0.5" width="80" height="80" rx="40" fill="#FBAD30"/>
<path d="M62.7464 30.3297L50.1731 17.7564C49.7624 17.3457 49.2223 17.4386 48.972 17.9618L47.2871 21.4722L59.0307 33.2157L62.5411 31.5308C63.0643 31.2805 63.1571 30.7376 62.7464 30.3297ZM45.0425 23.4496L33.4677 24.4144C32.6998 24.51 32.0585 24.6731 31.8363 25.6773C28.6972 40.7541 17.9972 55.4708 17.9972 55.4708L20.5175 57.991L32.472 46.0365C32.043 45.1384 31.9453 44.1176 32.1962 43.1544C32.4471 42.1912 33.0305 41.3477 33.8431 40.7731C34.6558 40.1984 35.6454 39.9295 36.6372 40.014C37.6289 40.0984 38.5588 40.5308 39.2626 41.2346C39.9664 41.9383 40.3988 42.8683 40.4832 43.86C40.5677 44.8518 40.2988 45.8414 39.7241 46.6541C39.1494 47.4667 38.306 48.0501 37.3428 48.301C36.3796 48.5519 35.3588 48.4542 34.4606 48.0252L22.5061 59.9797L25.0264 62.5C25.0264 62.5 39.7403 51.8 54.8171 48.6609C55.8212 48.4415 55.9872 47.8002 56.0828 47.0295L57.0476 35.4547L45.0397 23.4468L45.0425 23.4496Z" fill="white"/>
</svg>
